<?xml version="1.0" encoding="UTF-8" standalone="no"?>
<svg
   width="71.837601mm"
   height="24.866133mm"
   viewBox="0 0 71.837601 24.866133"
   version="1.1"
   id="svg1"
   xmlns="http://www.w3.org/2000/svg"
   xmlns:svg="http://www.w3.org/2000/svg">
  <g transform="translate(-69.0812,-136.06693)">
    <rect
       style="fill:#43596c;fill-opacity:1;stroke-width:0.0767424"
       id="rect1"
       width="200"
       height="24.866133"
       x="0"
       y="136.06693" />
    <path
       style="font-size:15.4031px;line-height:1.25;font-family:Manrope;-inkscape-font-specification:Manrope;text-align:center;text-anchor:middle;fill:#f9f9f9;stroke-width:0.962691"
       d="m 78.693121,154.49725 v -11.09023 h 6.931395 v 1.08592 h -5.799267 v 3.83537 h 4.875081 v 1.08592 h -4.875081 v 3.9971 h 5.799267 v 1.08592 z m 14.786972,0 v -4.24355 q 0,-0.69314 -0.130927,-1.27076 -0.130926,-0.58531 -0.423585,-1.0166 -0.284957,-0.43899 -0.74705,-0.67774 -0.454392,-0.23875 -1.109023,-0.23875 -0.600721,0 -1.062814,0.20795 -0.454392,0.20794 -0.770155,0.60072 -0.308062,0.38507 -0.469795,0.93959 -0.161732,0.55451 -0.161732,1.26305 l -0.800962,-0.17714 q 0,-1.27845 0.44669,-2.14873 0.44669,-0.87027 1.232248,-1.31696 0.785558,-0.44669 1.802163,-0.44669 0.74705,0 1.301562,0.23104 0.562213,0.23105 0.947291,0.62383 0.392779,0.39278 0.631527,0.90108 0.238748,0.5006 0.346569,1.07052 0.107822,0.56221 0.107822,1.12442 v 4.57472 z m -6.014911,0 v -8.31767 h 1.024306 v 2.04861 h 0.115524 v 6.26906 z m 12.892388,0.23105 q -1.147527,0 -1.940786,-0.57762 -0.79326,-0.58531 -1.201442,-1.57881 -0.408182,-1.00121 -0.408182,-2.24116 0,-1.26305 0.408182,-2.24885 0.415884,-0.9935 1.216845,-1.56341 0.800961,-0.56992 1.971593,-0.56992 1.13983,0 1.9562,0.57762 0.81636,0.57762 1.24765,1.57112 0.43899,0.9935 0.43899,2.23344 0,1.24766 -0.43899,2.24116 -0.43899,0.9935 -1.26306,1.57881 -0.82406,0.57762 -1.987,0.57762 z m -3.742949,-0.23105 v -11.09023 h 1.139829 v 4.82887 h -0.123224 v 6.26136 z m 3.627429,-0.82406 q 0.87028,0 1.44789,-0.43899 0.57762,-0.43899 0.86258,-1.19374 0.29265,-0.76245 0.29265,-1.70975 0,-0.93958 -0.28495,-1.69434 -0.28496,-0.75475 -0.87028,-1.19374 -0.57761,-0.43898 -1.47099,-0.43898 -0.870279,0 -1.447895,0.42358 -0.569915,0.42359 -0.854872,1.17834 -0.284957,0.74705 -0.284957,1.72514 0,0.9627 0.284957,1.72515 0.284957,0.75475 0.862574,1.18604 0.577616,0.43129 1.463293,0.43129 z m 7.8787,1.05511 q -0.93959,0 -1.57882,-0.33887 -0.63152,-0.33887 -0.94729,-0.90108 -0.31576,-0.56221 -0.31576,-1.22455 0,-0.67773 0.26955,-1.15523 0.27726,-0.4852 0.74705,-0.79326 0.4775,-0.30806 1.10133,-0.46979 0.63152,-0.15403 1.39398,-0.26956 0.77015,-0.12322 1.5018,-0.20794 0.73935,-0.0924 1.29386,-0.17713 l -0.40048,0.24645 q 0.0231,-1.23225 -0.4775,-1.82527 -0.5006,-0.59302 -1.74055,-0.59302 -0.85487,0 -1.44789,0.38508 -0.58532,0.38507 -0.82406,1.21684 l -1.10133,-0.32346 q 0.28496,-1.11673 1.14753,-1.73285 0.86258,-0.61613 2.24116,-0.61613 1.13982,0 1.93308,0.43129 0.80097,0.42358 1.13213,1.23225 0.15403,0.36197 0.20024,0.80866 0.0462,0.44669 0.0462,0.90878 v 5.16774 h -1.0089 v -2.08712 l 0.29266,0.12323 q -0.42359,1.07051 -1.31697,1.63273 -0.89338,0.56221 -2.14103,0.56221 z m 0.13093,-0.9781 q 0.79326,0 1.38628,-0.28495 0.59302,-0.28496 0.95499,-0.77786 0.36197,-0.5006 0.46979,-1.12443 0.0924,-0.40048 0.10012,-0.87797 0.008,-0.4852 0.008,-0.72395 l 0.43128,0.22335 q -0.57761,0.077 -1.25535,0.15403 -0.67003,0.077 -1.32467,0.17713 -0.64693,0.10012 -1.17063,0.23875 -0.35427,0.10012 -0.68544,0.28496 -0.33117,0.17713 -0.54681,0.47749 -0.20794,0.30036 -0.20794,0.74705 0,0.36198 0.17713,0.70084 0.18484,0.33887 0.58532,0.56222 0.40818,0.22334 1.07822,0.22334 z m 9.14944,0.9704 q -1.46329,0 -2.41058,-0.63153 -0.93959,-0.63153 -1.15524,-1.75595 l 1.15524,-0.19254 q 0.18483,0.70854 0.83946,1.13213 0.66234,0.41588 1.63273,0.41588 0.94729,0 1.4941,-0.39278 0.54681,-0.40048 0.54681,-1.08592 0,-0.38507 -0.17713,-0.62382 -0.16944,-0.24645 -0.70084,-0.45439 -0.53141,-0.20795 -1.58652,-0.4929 -1.13213,-0.30807 -1.77136,-0.61613 -0.63923,-0.30806 -0.90878,-0.70854 -0.26956,-0.40818 -0.26956,-0.9935 0,-0.70854 0.40048,-1.23995 0.40049,-0.53911 1.10903,-0.83177 0.70854,-0.30036 1.64813,-0.30036 0.93959,0 1.67894,0.30806 0.74705,0.30037 1.20144,0.84718 0.45439,0.54681 0.53911,1.27075 l -1.15523,0.20794 q -0.11553,-0.73164 -0.73165,-1.15523 -0.60842,-0.43129 -1.54801,-0.44669 -0.88568,-0.0231 -1.44019,0.33887 -0.55451,0.35427 -0.55451,0.94729 0,0.33117 0.20024,0.56991 0.20024,0.23105 0.72394,0.43899 0.53141,0.20794 1.50951,0.45439 1.14753,0.29266 1.80216,0.61613 0.65463,0.32346 0.93189,0.76245 0.27725,0.43899 0.27725,1.08592 0,1.17834 -0.87798,1.85607 -0.87027,0.67004 -2.40288,0.67004 z m 5.13693,-10.11984 v -1.27075 h 1.13213 v 1.27075 z m 0,9.89649 v -8.31767 h 1.13213 v 8.31767 z m 6.54631,0.22335 q -1.4633,0 -2.41059,-0.63153 -0.93959,-0.63153 -1.15523,-1.75595 l 1.15523,-0.19254 q 0.18484,0.70854 0.83947,1.13213 0.66233,0.41588 1.63273,0.41588 0.94729,0 1.4941,-0.39278 0.54681,-0.40048 0.54681,-1.08592 0,-0.38507 -0.17714,-0.62382 -0.16943,-0.24645 -0.70084,-0.45439 -0.5314,-0.20795 -1.58652,-0.4929 -1.13212,-0.30807 -1.77135,-0.61613 -0.63923,-0.30806 -0.90879,-0.70854 -0.26955,-0.40818 -0.26955,-0.9935 0,-0.70854 0.40048,-1.23995 0.40048,-0.53911 1.10902,-0.83177 0.70855,-0.30036 1.64814,-0.30036 0.93958,0 1.67893,0.30806 0.74705,0.30037 1.20144,0.84718 0.4544,0.54681 0.53911,1.27075 l -1.15523,0.20794 q -0.11552,-0.73164 -0.73165,-1.15523 -0.60842,-0.43129 -1.54801,-0.44669 -0.88568,-0.0231 -1.44019,0.33887 -0.55451,0.35427 -0.55451,0.94729 0,0.33117 0.20024,0.56991 0.20024,0.23105 0.72395,0.43899 0.5314,0.20794 1.5095,0.45439 1.14753,0.29266 1.80216,0.61613 0.65463,0.32346 0.93189,0.76245 0.27726,0.43899 0.27726,1.08592 0,1.17834 -0.87798,1.85607 -0.87028,0.67004 -2.40288,0.67004 z"
       id="text1"
       aria-label="Enbasis" />
  </g>
</svg>
