<svg xmlns="http://www.w3.org/2000/svg" viewBox="0 0 554.75 273"><title>Asset 4</title><g id="Layer_2" data-name="Layer 2"><g id="Rounded"><path d="M554.75,48.08V9.58A8.92,8.92,0,0,0,545.83.67H367.33a8.92,8.92,0,0,0-8.92,8.92V93.75a8.92,8.92,0,0,1-8.92,8.92H252.67a8.92,8.92,0,0,1-8.92-8.92V8.92A8.92,8.92,0,0,0,234.83,0H192.67a8.92,8.92,0,0,0-8.92,8.92V106a2,2,0,0,1-3.45,1.37L81.39,2.79A8.92,8.92,0,0,0,74.91,0H21a8.92,8.92,0,0,0-6.44,15.09L116,121a8.92,8.92,0,0,1,.15,12.17L2.34,258.08A8.92,8.92,0,0,0,8.93,273H69a8.92,8.92,0,0,0,6.75-3.08L180.24,149.06a2,2,0,0,1,3.51,1.31V264.08a8.92,8.92,0,0,0,8.92,8.92h42.17a8.92,8.92,0,0,0,8.92-8.92V154.33H349.5a8.92,8.92,0,0,1,8.92,8.92V263.42a8.92,8.92,0,0,0,8.92,8.92h53.75V272H545.83a8.92,8.92,0,0,0,8.92-8.92v-38.5a8.92,8.92,0,0,0-8.92-8.92H430a8.92,8.92,0,0,1-8.92-8.92V169.92A8.92,8.92,0,0,1,430,161h98.83a8.92,8.92,0,0,0,8.92-8.92v-38.5a8.92,8.92,0,0,0-8.92-8.92H430a8.92,8.92,0,0,1-8.92-8.92V65.92A8.92,8.92,0,0,1,430,57H545.83A8.92,8.92,0,0,0,554.75,48.08Z" style="fill:white"/></g></g></svg>