<?xml version="1.0" encoding="UTF-8" standalone="no"?>
<!-- Created with Inkscape (http://www.inkscape.org/) -->

<svg
   version="1.1"
   id="svg2"
   viewBox="0 0 573.49335 167.41333"
   sodipodi:docname="kent_state_university Horizontal_2-color.eps"
   xmlns:inkscape="http://www.inkscape.org/namespaces/inkscape"
   xmlns:sodipodi="http://sodipodi.sourceforge.net/DTD/sodipodi-0.dtd"
   xmlns="http://www.w3.org/2000/svg"
   xmlns:svg="http://www.w3.org/2000/svg">
  <defs
     id="defs6" />
  <sodipodi:namedview
     id="namedview4"
     pagecolor="#ffffff"
     bordercolor="#000000"
     borderopacity="0.25"
     inkscape:showpageshadow="2"
     inkscape:pageopacity="0.0"
     inkscape:pagecheckerboard="0"
     inkscape:deskcolor="#d1d1d1" />
  <g
     id="g8"
     inkscape:groupmode="layer"
     inkscape:label="ink_ext_XXXXXX"
     transform="matrix(1.3333333,0,0,-1.3333333,0,167.41333)">
    <g
       id="g10"
       transform="scale(0.1)">
      <path
         d="m 67.0586,669.094 c 0,120.246 0,141.832 -1.5391,166.496 -1.5429,26.211 -7.7109,38.539 -33.1445,43.937 C 26.207,881.07 13.1055,881.84 6.16797,881.84 3.08203,881.84 0,883.379 0,886.469 c 0,4.617 3.85547,6.164 12.332,6.164 34.6914,0 80.168,-2.317 84.7891,-2.317 6.9379,0 51.6449,2.317 74.7699,2.317 8.48,0 12.336,-1.547 12.336,-6.164 0,-3.09 -3.086,-4.629 -6.172,-4.629 -5.395,0 -10.02,-0.77 -19.27,-2.313 -20.808,-3.851 -26.976,-16.957 -28.519,-43.937 -1.539,-24.664 -1.539,-46.25 -1.539,-166.496 v -46.25 h 3.082 c 13.101,14.652 152.621,156.472 180.367,186.535 21.586,22.359 41.625,42.398 41.625,55.504 0,9.246 -3.852,13.875 -10.02,16.187 -3.855,1.539 -6.937,3.082 -6.937,6.164 0,3.852 3.855,5.399 9.25,5.399 15.414,0 39.308,-2.317 57.808,-2.317 3.856,0 54.731,2.317 74,2.317 8.477,0 11.559,-1.547 11.559,-5.399 0,-3.855 -1.539,-5.394 -7.707,-5.394 -11.563,0 -27.75,-3.86 -43.164,-10.793 -31.606,-13.871 -48.563,-33.145 -83.25,-66.285 -19.27,-18.504 -153.387,-149.543 -169.574,-168.813 20.039,-22.351 180.367,-188.07 211.968,-217.363 64.75,-60.125 77.852,-72.461 114.852,-87.871 20.043,-8.481 42.394,-10.024 47.789,-10.024 5.398,0 10.02,-1.539 10.02,-4.628 0,-3.848 -3.848,-6.165 -16.957,-6.165 h -39.309 c -21.582,0 -36.227,0 -53.184,1.547 -40.855,3.852 -60.125,20.805 -93.269,47.016 -34.688,28.519 -198.098,205.035 -235.098,250.512 h -3.851 v -75.535 c 0,-74 0,-134.891 3.851,-167.266 2.317,-22.352 6.938,-39.317 30.063,-42.399 10.793,-1.539 23.125,-3.082 30.062,-3.082 4.621,0 6.164,-2.312 6.164,-4.628 0,-3.848 -3.851,-6.165 -12.332,-6.165 -37.769,0 -82.476,2.317 -88.6405,2.317 -6.1679,0 -50.8711,-2.317 -73.9961,-2.317 -8.4843,0 -12.3359,1.547 -12.3359,6.165 0,2.316 1.543,4.628 6.168,4.628 6.9336,0 16.1875,1.543 23.1211,3.082 15.4179,3.082 19.2734,20.047 22.3554,42.399 3.8516,32.375 3.8516,93.266 3.8516,167.266 v 135.656"
         style="fill:#15366f;fill-opacity:1;fill-rule:nonzero;stroke:none"
         id="path12" />
      <path
         d="m 585.035,669.094 c 0,120.246 0,141.832 -1.543,166.496 -1.539,26.211 -7.711,38.539 -33.144,43.937 -6.168,1.543 -19.27,2.313 -26.207,2.313 -3.086,0 -6.168,1.539 -6.168,4.629 0,4.617 3.855,6.164 12.336,6.164 17.726,0 38.539,0 55.5,-0.77 l 31.601,-1.547 c 5.395,0 215.625,0 233.356,0.77 14.64,0.777 26.976,2.312 33.144,3.859 3.856,0.77 6.938,3.852 10.789,3.852 2.313,0 3.082,-3.082 3.082,-6.934 0,-5.394 -3.851,-14.652 -6.168,-36.234 -0.765,-7.711 -2.308,-41.621 -3.847,-50.867 -0.774,-3.86 -2.317,-8.481 -5.399,-8.481 -4.625,0 -6.168,3.852 -6.168,10.016 0,5.394 -0.769,26.621 -4.621,35.867 -5.398,12.34 -21.226,13.465 -62.848,18.094 -12.882,1.515 -145.843,2.312 -154.324,2.312 -3.086,0 -4.625,-2.312 -4.625,-7.711 V 642.113 c 0,-5.394 0.774,-7.699 4.625,-7.699 10.02,0 161.672,0 179.399,1.535 18.504,1.547 29.293,3.082 36.23,10.793 5.395,6.164 8.481,10.024 11.563,10.024 2.312,0 3.851,-1.547 3.851,-6.172 0,-4.621 -3.851,-17.727 -6.168,-43.16 -1.539,-15.418 -3.082,-43.938 -3.082,-49.332 0,-6.172 0,-14.649 -5.394,-14.649 -3.856,0 -5.399,3.09 -5.399,6.942 0,7.707 0,15.418 -3.082,25.433 -3.082,10.789 -18.136,23.895 -48.199,26.981 -20.812,2.312 -145.844,3.847 -158.949,3.847 -3.856,0 -5.395,-2.304 -5.395,-5.394 v -67.824 c 0,-26.211 -0.769,-115.622 0,-131.809 2.313,-53.191 13.879,-63.203 89.414,-63.203 20.039,0 110.797,0 130.84,8.476 20.039,8.477 29.289,23.891 34.684,55.496 1.543,8.477 3.086,11.559 6.937,11.559 4.625,0 4.625,-6.164 4.625,-11.559 0,-6.164 -6.164,-58.578 -10.019,-74.765 -5.395,-20.047 -11.563,-20.047 -41.621,-20.047 -57.817,0 -157.047,1.547 -187.11,2.312 -30.058,1.547 -48.562,2.317 -60.121,2.317 -1.543,0 -14.648,0 -30.836,-0.77 -15.414,0 -33.144,-1.547 -44.703,-1.547 -8.48,0 -12.332,1.547 -12.332,6.165 0,2.316 1.539,4.628 6.164,4.628 6.938,0 16.188,1.543 23.125,3.082 15.414,3.082 19.27,20.047 22.352,42.399 3.855,32.375 3.855,93.266 3.855,167.266 v 135.656"
         style="fill:#15366f;fill-opacity:1;fill-rule:nonzero;stroke:none"
         id="path14" />
      <path
         d="m 3911.11,669.094 c 0,120.246 0,141.832 -1.55,166.496 -1.54,26.211 -7.71,38.539 -33.14,43.937 -6.17,1.543 -19.27,2.313 -26.21,2.313 -3.08,0 -6.17,1.539 -6.17,4.629 0,4.617 3.86,6.164 12.34,6.164 17.73,0 38.54,0 55.5,-0.77 l 31.6,-1.547 c 5.4,0 215.63,0 233.36,0.77 14.64,0.777 26.97,2.312 33.14,3.859 3.86,0.77 6.94,3.852 10.79,3.852 2.31,0 3.08,-3.082 3.08,-6.934 0,-5.394 -3.85,-14.652 -6.16,-36.234 -0.77,-7.711 -2.31,-41.621 -3.85,-50.867 -0.78,-3.86 -2.32,-8.481 -5.4,-8.481 -4.63,0 -6.17,3.852 -6.17,10.016 0,5.394 -0.77,18.504 -4.62,27.75 -5.4,12.336 -21.23,21.582 -62.85,26.211 -13.11,1.543 -145.84,2.312 -154.32,2.312 -3.09,0 -4.63,-2.312 -4.63,-7.711 V 642.113 c 0,-5.394 0.77,-7.699 4.63,-7.699 10.02,0 161.67,0 179.4,1.535 18.5,1.547 29.29,3.082 36.23,10.793 5.39,6.164 8.47,10.024 11.56,10.024 2.31,0 3.85,-1.547 3.85,-6.172 0,-4.621 -3.85,-17.727 -6.17,-43.16 -1.54,-15.418 -3.08,-43.938 -3.08,-49.332 0,-6.172 0,-14.649 -5.39,-14.649 -3.86,0 -5.4,3.09 -5.4,6.942 0,7.707 0,15.418 -3.08,25.433 -3.09,10.789 -18.14,23.895 -48.2,26.981 -20.82,2.312 -145.85,3.847 -158.95,3.847 -3.86,0 -5.4,-2.304 -5.4,-5.394 v -67.824 c 0,-26.211 -0.77,-115.622 0,-131.809 2.32,-53.191 13.88,-63.203 89.42,-63.203 20.04,0 110.79,0 130.84,8.476 20.04,8.477 29.29,23.891 34.68,55.496 1.54,8.477 3.08,11.559 6.94,11.559 4.62,0 4.62,-6.164 4.62,-11.559 0,-6.164 -6.16,-58.578 -10.02,-74.765 -5.39,-20.047 -11.56,-20.047 -41.62,-20.047 -57.81,0 -157.04,1.547 -187.11,2.312 -30.06,1.547 -48.56,2.317 -60.12,2.317 -1.54,0 -14.65,0 -30.83,-0.77 -15.42,0 -33.15,-1.547 -44.71,-1.547 -8.48,0 -12.33,1.547 -12.33,6.165 0,2.316 1.54,4.628 6.16,4.628 6.94,0 16.19,1.543 23.13,3.082 15.41,3.082 19.27,20.047 22.35,42.399 3.86,32.375 3.86,93.266 3.86,167.266 v 135.656"
         style="fill:#15366f;fill-opacity:1;fill-rule:nonzero;stroke:none"
         id="path16" />
      <path
         d="m 1015.9,414.727 c 1.54,-63.207 9.25,-83.243 30.06,-89.411 14.65,-3.855 31.61,-4.625 38.54,-4.625 3.86,0 6.17,-1.539 6.17,-4.628 0,-4.618 -4.63,-6.165 -13.87,-6.165 -43.94,0 -74.77,2.317 -81.71,2.317 -6.938,0 -39.313,-2.317 -73.996,-2.317 -7.711,0 -12.332,0.77 -12.332,6.165 0,3.089 2.312,4.628 6.168,4.628 6.164,0 20.039,0.77 31.601,4.625 19.27,5.399 23.125,27.75 23.125,97.887 l 0.77,441.68 c 0,30.062 2.312,38.539 8.476,38.539 6.168,0 19.27,-16.953 26.978,-24.664 11.56,-13.106 126.41,-137.203 245.12,-264.391 76.31,-81.707 160.33,-175.742 184.99,-201.176 l -8.48,391.571 c -0.77,50.097 -6.16,67.054 -30.06,73.218 -13.87,3.09 -31.6,3.86 -37.77,3.86 -5.4,0 -6.16,2.312 -6.16,5.394 0,4.629 6.16,5.399 15.41,5.399 34.69,0 71.69,-2.317 80.17,-2.317 8.48,0 33.91,2.317 65.51,2.317 8.48,0 13.88,-0.77 13.88,-5.399 0,-3.082 -3.09,-5.394 -8.48,-5.394 -3.86,0 -9.25,0 -18.5,-2.313 -25.44,-5.398 -28.52,-22.351 -28.52,-68.601 l -1.54,-451.696 c 0,-50.867 -1.54,-54.726 -6.94,-54.726 -6.17,0 -15.42,8.476 -56.27,49.332 -8.48,7.711 -119.47,121.016 -201.18,208.887 -89.41,96.355 -176.51,193.472 -201.18,221.222 l 10.02,-369.218"
         style="fill:#15366f;fill-opacity:1;fill-rule:nonzero;stroke:none"
         id="path18" />
      <path
         d="m 1802.88,533.438 c 0,-74 0,-134.891 3.86,-167.266 2.3,-22.352 6.93,-39.317 30.06,-42.399 10.79,-1.539 27.74,-3.082 34.68,-3.082 4.63,0 6.17,-2.312 6.17,-4.628 0,-3.848 -3.85,-6.165 -12.33,-6.165 -42.4,0 -90.96,2.317 -94.81,2.317 -3.86,0 -52.42,-2.317 -75.54,-2.317 -8.48,0 -12.34,1.547 -12.34,6.165 0,2.316 1.54,4.628 6.17,4.628 6.94,0 16.19,1.543 23.13,3.082 15.41,3.082 19.27,20.047 22.35,42.399 3.85,32.375 3.85,93.266 3.85,167.266 v 326.05 l -114.08,-1.547 c -47.78,-0.765 -66.29,-6.164 -78.62,-24.664 -8.48,-13.105 -10.79,-18.504 -13.1,-23.898 -2.31,-6.164 -4.63,-7.699 -7.71,-7.699 -2.31,0 -3.85,2.304 -3.85,6.929 0,7.711 15.41,74 16.95,80.164 1.55,4.625 4.63,14.649 7.71,14.649 5.4,0 13.11,-7.707 33.92,-9.254 22.35,-2.305 51.64,-3.852 60.89,-3.852 h 289.05 c 24.67,0 42.4,1.547 54.73,3.852 11.56,1.547 18.5,3.859 21.58,3.859 3.86,0 3.86,-4.629 3.86,-9.254 0,-23.121 -2.32,-76.304 -2.32,-84.789 0,-6.933 -2.31,-10.015 -5.39,-10.015 -3.86,0 -5.4,2.312 -6.17,13.105 l -0.77,8.477 c -2.31,23.121 -20.81,40.855 -94.81,42.39 l -97.12,1.547 v -326.05"
         style="fill:#15366f;fill-opacity:1;fill-rule:nonzero;stroke:none"
         id="path20" />
      <path
         d="m 2214.68,320.488 c -12.71,5.543 -13.62,8.707 -13.62,30.086 0,39.59 3.63,71.254 4.54,83.918 0.9,8.711 2.72,12.672 7.26,12.672 5.45,0 6.35,-2.375 6.35,-8.707 0,-7.129 0,-18.215 2.73,-29.301 13.61,-58.582 73.52,-80.75 134.34,-80.75 87.15,0 129.81,54.625 129.81,105.297 0,54.629 -26.33,94.422 -104.39,150.637 l -40.85,29.293 c -96.22,68.883 -118.01,109.847 -118.01,163.683 0,84.715 72.62,142.516 187.91,142.516 35.4,0 61.72,-3.164 84.42,-7.918 17.24,-3.168 15.16,-0.996 22.43,-0.996 7.26,0 9.07,-1.586 9.07,-5.539 0,-3.965 8.93,-35.094 17.73,-86.891 2.12,-12.492 -1.81,-18.211 -6.35,-18.211 -5.44,0 -6.36,3.961 -7.26,10.293 -0.91,9.5 -18.38,34.02 -23.83,42.731 -5.44,8.707 -29.95,38.82 -113.46,38.82 -62.63,0 -111.65,-34.047 -111.65,-91.844 0,-45.129 23.6,-65.511 110.74,-124.89 l 25.42,-17.418 c 107.11,-73.629 132.53,-130.84 132.53,-194.176 0,-32.465 -14.53,-92.633 -77.16,-131.43 -39.03,-23.75 -88.05,-33.254 -137.06,-33.254 -42.68,0 -84.43,5.539 -121.64,21.379"
         style="fill:#15366f;fill-opacity:1;fill-rule:nonzero;stroke:none"
         id="path22" />
      <path
         d="m 2805.86,533.438 c 0,-74 0,-134.891 3.79,-167.266 2.28,-22.352 6.83,-39.317 29.56,-42.399 10.62,-1.539 27.29,-3.082 34.12,-3.082 4.54,0 6.06,-2.312 6.06,-4.628 0,-3.848 -3.79,-6.165 -12.13,-6.165 -41.69,0 -89.45,2.317 -93.23,2.317 -3.79,0 -51.55,-2.317 -74.29,-2.317 -8.34,0 -12.13,1.547 -12.13,6.165 0,2.316 1.52,4.628 6.07,4.628 6.82,0 15.92,1.543 22.74,3.082 15.16,3.082 18.95,20.047 21.98,42.399 3.79,32.375 3.79,93.266 3.79,167.266 v 326.05 L 2630,857.941 c -46.99,-0.765 -60.77,-6.164 -72.9,-24.664 -8.33,-13.105 -10.61,-18.504 -12.89,-23.898 -2.27,-6.164 -4.55,-7.699 -7.58,-7.699 -2.27,0 -3.78,2.304 -3.78,6.929 0,7.711 15.15,74 16.67,80.164 1.52,4.625 4.55,14.649 7.58,14.649 5.31,0 12.89,-7.707 33.35,-9.254 21.98,-2.305 46.38,-3.852 55.47,-3.852 h 284.25 c 24.26,0 41.69,1.547 53.82,3.852 11.37,1.547 18.2,3.859 21.23,3.859 3.79,0 3.79,-4.629 3.79,-9.254 0,-23.121 -2.28,-76.304 -2.28,-84.789 0,-6.933 -2.28,-10.015 -5.31,-10.015 -3.78,0 -5.3,2.312 -6.06,13.105 l -0.75,8.477 c -2.28,23.121 -20.47,40.855 -93.24,42.39 l -95.51,1.547 v -326.05"
         style="fill:#15366f;fill-opacity:1;fill-rule:nonzero;stroke:none"
         id="path24" />
      <path
         d="m 3244.49,565.035 c 4.43,0 4.43,2.313 3.55,5.395 l -84.28,208.121 c -4.43,11.558 -8.87,11.558 -13.3,0 L 3072.4,570.43 c -1.78,-3.852 0,-5.395 2.66,-5.395 z m -92.26,308.328 c 10.65,25.434 14.2,30.059 19.52,30.059 5.32,0 8.86,-3.856 19.51,-27.746 13.31,-29.293 152.57,-347.633 206.68,-464.801 31.93,-68.602 57.66,-80.937 76.28,-85.559 13.32,-3.855 26.62,-4.625 35.49,-4.625 5.32,0 8.86,-0.769 8.86,-4.628 0,-4.618 -7.97,-6.165 -17.73,-6.165 -13.3,0 -78.06,0 -139.26,1.547 -16.86,0.77 -26.62,0.77 -26.62,5.395 0,3.082 2.66,4.621 6.21,5.394 5.32,1.539 10.65,8.481 5.32,20.809 L 3264,532.66 c -1.78,3.09 -3.55,4.625 -7.99,4.625 H 3065.3 c -4.44,0 -7.09,-2.312 -8.87,-6.164 l -53.22,-136.433 c -7.98,-19.27 -12.42,-37.77 -12.42,-51.645 0,-15.41 18.63,-22.352 33.71,-22.352 h 8.87 c 6.21,0 8.87,-1.539 8.87,-4.628 0,-4.618 -5.32,-6.165 -13.31,-6.165 -21.29,0 -59.43,2.317 -69.19,2.317 -9.75,0 -58.54,-2.317 -100.23,-2.317 -11.53,0 -16.86,1.547 -16.86,6.165 0,3.089 3.55,4.628 7.99,4.628 6.21,0 18.63,0.77 25.73,1.543 40.8,4.621 58.53,33.914 74.5,72.454 l 201.36,478.675"
         style="fill:#15366f;fill-opacity:1;fill-rule:nonzero;stroke:none"
         id="path26" />
      <path
         d="m 3622.61,533.438 c 0,-74 0,-134.891 3.86,-167.266 2.31,-22.352 6.94,-39.317 30.06,-42.399 10.8,-1.539 27.75,-3.082 34.69,-3.082 4.62,0 6.17,-2.312 6.17,-4.628 0,-3.848 -3.86,-6.165 -12.34,-6.165 -42.39,0 -90.95,2.317 -94.81,2.317 -3.85,0 -52.41,-2.317 -75.54,-2.317 -8.47,0 -12.33,1.547 -12.33,6.165 0,2.316 1.54,4.628 6.17,4.628 6.93,0 16.19,1.543 23.12,3.082 15.42,3.082 19.27,20.047 22.35,42.399 3.86,32.375 3.86,93.266 3.86,167.266 v 326.05 l -114.08,-1.547 c -47.79,-0.765 -66.29,-6.164 -78.63,-24.664 -8.47,-13.105 -10.79,-18.504 -13.09,-23.898 -2.32,-6.164 -4.63,-7.699 -7.71,-7.699 -2.32,0 -3.86,2.304 -3.86,6.929 0,7.711 15.42,74 16.95,80.164 1.55,4.625 4.63,14.649 7.71,14.649 5.4,0 13.11,-7.707 33.92,-9.254 22.36,-2.305 51.65,-3.852 60.9,-3.852 h 289.05 c 24.66,0 42.39,1.547 54.72,3.852 11.57,1.547 18.5,3.859 21.59,3.859 3.85,0 3.85,-4.629 3.85,-9.254 0,-23.121 -2.31,-76.304 -2.31,-84.789 0,-6.933 -2.31,-10.015 -5.39,-10.015 -3.86,0 -5.4,2.312 -6.17,13.105 l -0.78,8.477 c -2.31,23.121 -20.8,40.855 -94.8,42.39 l -97.13,1.547 v -326.05"
         style="fill:#15366f;fill-opacity:1;fill-rule:nonzero;stroke:none"
         id="path28" />
      <path
         d="m 337.496,118.801 c 0,38.597 0,45.539 -0.492,53.449 -0.496,8.422 -2.477,12.379 -10.645,14.109 -1.98,0.5 -6.187,0.743 -8.414,0.743 -0.992,0 -1.98,0.5 -1.98,1.488 0,1.48 1.238,1.969 3.961,1.969 11.137,0 26.234,-0.731 28.461,-0.731 2.226,0 17.078,0.731 24.5,0.731 2.722,0 3.961,-0.489 3.961,-1.969 0,-0.988 -0.989,-1.488 -1.981,-1.488 -1.73,0 -3.215,-0.243 -6.187,-0.743 -6.68,-0.988 -8.66,-5.449 -9.157,-14.109 -0.496,-7.91 -0.496,-14.852 -0.496,-53.449 V 84.1484 c 0,-35.6367 7.922,-50.9882 18.563,-61.1289 12.125,-11.3789 23.262,-13.60934 37.371,-13.60934 15.098,0 29.945,7.17964 38.855,17.82034 11.383,14.0976 14.356,35.1406 14.356,60.6289 v 30.9416 c 0,38.597 0,45.539 -0.496,53.449 -0.496,8.422 -2.477,12.379 -10.641,14.109 -1.98,0.5 -6.187,0.743 -8.418,0.743 -0.988,0 -1.976,0.5 -1.976,1.488 0,1.48 1.234,1.969 3.957,1.969 11.14,0 24.75,-0.731 26.234,-0.731 1.731,0 13.363,0.731 20.789,0.731 2.723,0 3.957,-0.489 3.957,-1.969 0,-0.988 -0.988,-1.488 -1.98,-1.488 -1.731,0 -3.215,-0.243 -6.184,-0.743 -6.684,-1.488 -8.664,-5.449 -9.16,-14.109 -0.492,-7.91 -0.492,-14.852 -0.492,-53.449 V 92.3086 c 0,-26.7188 -2.969,-56.418 -22.77,-73.9883 C 443.172,2.48047 424.609,0 410.012,0 401.598,0 376.598,0.988281 359.027,17.5781 346.902,29.2109 337.496,46.5313 337.496,82.6602 v 36.1408"
         style="fill:#15366f;fill-opacity:1;fill-rule:nonzero;stroke:none"
         id="path30" />
      <path
         d="m 783.18,37.1289 c 0.496,-20.3008 2.972,-26.7305 9.652,-28.70702 4.699,-1.24219 10.148,-1.48047 12.375,-1.48047 1.238,0 1.981,-0.5 1.981,-1.49219 0,-1.48047 -1.485,-1.98047 -4.458,-1.98047 -14.105,0 -24.003,0.74219 -26.234,0.74219 -2.226,0 -12.617,-0.74219 -23.758,-0.74219 -2.472,0 -3.957,0.25 -3.957,1.98047 0,0.99219 0.739,1.49219 1.981,1.49219 1.976,0 6.433,0.23828 10.144,1.48047 6.192,1.72652 7.426,8.89842 7.426,31.42972 l 0.246,141.8084 c 0,9.649 0.742,12.371 2.727,12.371 1.976,0 6.183,-5.441 8.66,-7.922 3.711,-4.211 40.586,-44.05 78.699,-84.879 24.496,-26.2417 51.477,-56.4292 59.399,-64.6011 l -2.727,125.7301 c -0.246,16.082 -1.977,21.52 -9.652,23.512 -4.454,0.988 -10.145,1.231 -12.125,1.231 -1.731,0 -1.981,0.75 -1.981,1.738 0,1.48 1.981,1.719 4.953,1.719 11.137,0 23.012,-0.731 25.739,-0.731 2.722,0 10.886,0.731 21.031,0.731 2.726,0 4.457,-0.239 4.457,-1.719 0,-0.988 -0.988,-1.738 -2.723,-1.738 -1.238,0 -2.969,0 -5.941,-0.743 -8.164,-1.73 -9.156,-7.168 -9.156,-22.019 L 929.441,19.3086 c 0,-16.32813 -0.492,-17.57032 -2.222,-17.57032 -1.981,0 -4.949,2.72266 -18.067,15.83982 -2.722,2.4727 -38.363,38.8516 -64.597,67.0625 -28.707,30.9374 -56.672,62.1214 -64.59,71.0314 L 783.18,37.1289"
         style="fill:#15366f;fill-opacity:1;fill-rule:nonzero;stroke:none"
         id="path32" />
      <path
         d="m 1250.4,75.2383 c 0,-23.7578 0,-43.3086 1.23,-53.707 0.75,-7.1719 2.23,-12.62114 9.65,-13.60161 3.47,-0.5 8.91,-0.98828 11.14,-0.98828 1.48,0 1.98,-0.75 1.98,-1.49219 0,-1.23828 -1.24,-1.98047 -3.96,-1.98047 -13.61,0 -29.2,0.74219 -30.44,0.74219 -1.24,0 -16.83,-0.74219 -24.25,-0.74219 -2.73,0 -3.96,0.5 -3.96,1.98047 0,0.74219 0.49,1.49219 1.98,1.49219 2.23,0 5.19,0.48828 7.42,0.98828 4.95,0.98047 6.19,6.42971 7.18,13.60161 1.24,10.3984 1.24,29.9492 1.24,53.707 v 43.5627 c 0,38.597 0,45.539 -0.5,53.449 -0.49,8.422 -2.97,12.621 -8.41,13.859 -2.73,0.75 -5.94,0.993 -7.68,0.993 -0.99,0 -1.98,0.5 -1.98,1.488 0,1.48 1.24,1.969 3.97,1.969 8.16,0 23.75,-0.731 24.99,-0.731 1.24,0 16.83,0.731 24.25,0.731 2.73,0 3.97,-0.489 3.97,-1.969 0,-0.988 -0.99,-1.488 -1.98,-1.488 -1.74,0 -3.22,-0.243 -6.19,-0.743 -6.69,-1.238 -8.66,-5.449 -9.16,-14.109 -0.49,-7.91 -0.49,-14.852 -0.49,-53.449 V 75.2383"
         style="fill:#15366f;fill-opacity:1;fill-rule:nonzero;stroke:none"
         id="path34" />
      <path
         d="m 1612.19,33.6602 c 14.35,33.1601 47.52,119.5388 52.96,137.3598 1.24,3.699 2.23,7.171 2.23,9.402 0,1.976 -0.74,4.449 -3.22,5.687 -2.97,0.993 -6.68,0.993 -9.4,0.993 -1.49,0 -2.72,0.25 -2.72,1.488 0,1.48 1.48,1.969 5.44,1.969 9.9,0 21.28,-0.731 24.25,-0.731 1.49,0 12.13,0.731 19.31,0.731 2.72,0 4.2,-0.489 4.2,-1.719 0,-1.238 -0.98,-1.738 -2.96,-1.738 -1.74,0 -7.18,0 -11.88,-2.973 -3.22,-2.231 -6.93,-6.43 -13.61,-23.258 -2.73,-6.93 -15.1,-36.633 -27.72,-67.0702 -15.1,-36.1289 -26.24,-62.8594 -31.93,-74.9922 C 1610.21,3.96875 1609.22,0 1606.75,0 c -2.97,0 -4.21,3.46875 -8.91,15.3516 L 1537.2,167.051 c -5.44,13.859 -9.15,16.59 -17.82,19.058 -3.71,0.993 -7.92,0.993 -9.4,0.993 -1.48,0 -1.98,0.75 -1.98,1.738 0,1.48 2.47,1.719 6.43,1.719 11.88,0 25.99,-0.731 28.96,-0.731 2.48,0 13.61,0.731 23.01,0.731 4.46,0 6.69,-0.489 6.69,-1.719 0,-1.238 -0.74,-1.738 -2.48,-1.738 -2.72,0 -7.17,-0.243 -9.4,-1.231 -2.72,-1.242 -3.22,-3.223 -3.22,-4.961 0,-3.211 2.97,-10.879 6.68,-20.531 l 47.52,-126.7188"
         style="fill:#15366f;fill-opacity:1;fill-rule:nonzero;stroke:none"
         id="path36" />
      <path
         d="m 1960.86,118.801 c 0,38.597 0,45.539 -0.49,53.449 -0.49,8.422 -2.47,12.379 -10.64,14.109 -1.98,0.5 -6.19,0.743 -8.42,0.743 -0.98,0 -1.98,0.5 -1.98,1.488 0,1.48 1.24,1.969 3.96,1.969 5.7,0 12.38,0 17.82,-0.239 l 10.15,-0.492 c 1.73,0 50.98,0 56.67,0.242 4.7,0.25 8.67,0.75 10.65,1.239 1.23,0.242 2.22,1.23 3.46,1.23 0.74,0 0.99,-0.988 0.99,-2.219 0,-1.73 -1.24,-4.699 -1.98,-11.629 -0.25,-2.48 -0.74,-13.363 -1.24,-16.332 -0.25,-1.238 -0.74,-2.73 -1.73,-2.73 -1.48,0 -1.98,1.242 -1.98,3.223 0,1.726 -0.25,5.937 -1.49,8.91 -1.73,3.957 -4.2,6.929 -17.57,8.418 -4.2,0.492 -31.18,0.73 -33.9,0.73 -0.99,0 -1.49,-0.73 -1.49,-2.469 v -68.312 c 0,-1.719 0.25,-2.469 1.49,-2.469 3.22,0 33.65,0 39.35,0.488 5.94,0.5 9.4,0.993 11.63,3.473 1.73,1.981 2.72,3.219 3.71,3.219 0.75,0 1.24,-0.5 1.24,-1.981 0,-1.488 -1.24,-5.699 -1.98,-13.859 -0.49,-4.9492 -0.99,-14.1094 -0.99,-15.8398 0,-1.9805 0,-4.711 -1.73,-4.711 -1.24,0 -1.74,0.9922 -1.74,2.2305 0,2.4805 0,4.9492 -0.98,8.1719 -0.99,3.457 -3.22,7.6679 -12.87,8.6601 -6.69,0.75 -31.19,1.2383 -35.39,1.2383 -1.24,0 -1.74,-0.7383 -1.74,-1.7305 V 75.2383 c 0,-8.418 -0.25,-37.1172 0,-42.3164 0.74,-17.0821 4.46,-20.293 28.71,-20.293 6.43,0 17.33,0 23.76,2.7227 6.43,2.7187 9.4,7.6679 11.14,17.8086 0.49,2.7304 0.99,3.7187 2.23,3.7187 1.48,0 1.48,-1.9805 1.48,-3.7187 0,-1.9688 -1.98,-18.8008 -3.22,-24.00004 -1.73,-6.42969 -3.71,-6.42969 -13.36,-6.42969 -18.56,0 -32.18,0.48828 -41.83,0.73828 -9.65,0.5 -15.59,0.74219 -19.3,0.74219 -0.5,0 -4.7,0 -9.9,-0.24219 -4.95,0 -10.64,-0.5 -14.36,-0.5 -2.72,0 -3.95,0.5 -3.95,1.98047 0,0.74219 0.49,1.49219 1.97,1.49219 2.23,0 5.2,0.48828 7.43,0.98828 4.95,0.98047 6.19,6.42971 7.18,13.60161 1.23,10.3984 1.23,29.9492 1.23,53.707 v 43.5627"
         style="fill:#15366f;fill-opacity:1;fill-rule:nonzero;stroke:none"
         id="path38" />
      <path
         d="m 2351.37,97.2617 c 0,-1.2304 0.49,-2.2226 1.72,-2.9726 3.71,-2.2188 15.11,-3.9493 25.99,-3.9493 5.95,0 12.87,0.7383 18.56,4.6993 8.67,5.9409 15.1,19.3009 15.1,38.1089 0,30.93 -16.34,49.5 -42.82,49.5 -7.42,0 -14.1,-0.75 -16.57,-1.476 -1.25,-0.5 -1.98,-1.492 -1.98,-2.981 z m -19.81,21.5393 c 0,38.597 0,45.539 -0.49,53.449 -0.49,8.422 -2.47,12.379 -10.64,14.109 -1.98,0.5 -6.19,0.743 -8.42,0.743 -0.99,0 -1.97,0.5 -1.97,1.488 0,1.48 1.23,1.969 3.95,1.969 11.13,0 26.73,-0.731 27.96,-0.731 2.73,0 21.54,0.731 29.21,0.731 15.59,0 32.17,-1.481 45.29,-10.879 6.19,-4.461 17.08,-16.59 17.08,-33.66 0,-18.309 -7.67,-36.622 -29.95,-57.1684 20.29,-25.9805 37.12,-48.0118 51.47,-63.3633 13.38,-14.0977 24.01,-16.82814 30.2,-17.81642 4.71,-0.73047 8.17,-0.73047 9.65,-0.73047 1.25,0 2.24,-0.75 2.24,-1.49219 0,-1.48047 -1.49,-1.98047 -5.95,-1.98047 h -17.57 c -13.86,0 -20.04,1.23047 -26.48,4.70313 -10.64,5.68752 -19.3,17.81642 -33.41,36.37892 -10.4,13.6094 -22.03,30.1992 -26.98,36.6289 -0.99,0.9922 -1.72,1.4805 -3.21,1.4805 l -30.45,0.5 c -1.23,0 -1.72,-0.7383 -1.72,-1.9805 v -5.9414 c 0,-23.7578 0,-43.3086 1.23,-53.707 0.75,-7.1719 2.23,-12.62114 9.65,-13.60161 3.47,-0.5 8.91,-0.98828 11.14,-0.98828 1.48,0 1.98,-0.75 1.98,-1.49219 0,-1.23828 -1.24,-1.98047 -3.96,-1.98047 -13.61,0 -29.2,0.74219 -30.44,0.74219 -0.25,0 -15.85,-0.74219 -23.26,-0.74219 -2.73,0 -3.96,0.5 -3.96,1.98047 0,0.74219 0.49,1.49219 1.98,1.49219 2.22,0 5.2,0.48828 7.42,0.98828 4.95,0.98047 6.19,6.42971 7.17,13.60161 1.24,10.3984 1.24,29.9492 1.24,53.707 v 43.5627"
         style="fill:#15366f;fill-opacity:1;fill-rule:nonzero;stroke:none"
         id="path40" />
      <path
         d="m 2721.32,6.67969 c -3.47,1.74219 -3.71,2.73047 -3.71,9.41011 0,12.3711 0.99,22.2696 1.23,26.2305 0.26,2.7305 0.75,3.961 1.98,3.961 1.49,0 1.74,-0.7422 1.74,-2.7227 0,-2.2305 0,-5.6875 0.74,-9.1484 3.71,-18.3204 20.05,-25.25004 36.63,-25.25004 23.76,0 35.39,17.07814 35.39,32.91794 0,17.0703 -7.18,26.9727 -28.46,44.543 l -11.14,9.1602 c -26.24,21.5277 -32.17,36.8787 -32.17,53.7067 0,26.481 19.8,44.543 51.22,44.543 9.65,0 16.83,-0.992 23.02,-2.48 4.71,-0.992 6.68,-1.231 8.66,-1.231 1.98,0 2.48,-0.492 2.48,-1.73 0,-1.238 -0.99,-9.399 -0.99,-26.231 0,-3.968 -0.5,-5.699 -1.73,-5.699 -1.48,0 -1.74,1.238 -1.98,3.219 -0.25,2.973 -1.73,9.66 -3.22,12.371 -1.48,2.73 -8.17,13.121 -30.93,13.121 -17.08,0 -30.45,-10.652 -30.45,-28.711 0,-14.101 6.44,-23.012 30.2,-41.582 l 6.92,-5.437 c 29.21,-23.0199 36.14,-38.3597 36.14,-58.1605 0,-10.1524 -3.96,-28.961 -21.03,-41.0821 C 2781.21,2.98047 2767.85,0 2754.48,0 c -11.63,0 -23.02,1.73828 -33.16,6.67969"
         style="fill:#15366f;fill-opacity:1;fill-rule:nonzero;stroke:none"
         id="path42" />
      <path
         d="m 3118.75,75.2383 c 0,-23.7578 0,-43.3086 1.24,-53.707 0.74,-7.1719 2.23,-12.62114 9.65,-13.60161 3.47,-0.5 8.91,-0.98828 11.14,-0.98828 1.49,0 1.98,-0.75 1.98,-1.49219 0,-1.23828 -1.24,-1.98047 -3.97,-1.98047 -13.61,0 -29.19,0.74219 -30.43,0.74219 -1.24,0 -16.83,-0.74219 -24.25,-0.74219 -2.73,0 -3.97,0.5 -3.97,1.98047 0,0.74219 0.5,1.49219 1.99,1.49219 2.22,0 5.19,0.48828 7.42,0.98828 4.94,0.98047 6.19,6.42971 7.18,13.60161 1.24,10.3984 1.24,29.9492 1.24,53.707 v 43.5627 c 0,38.597 0,45.539 -0.5,53.449 -0.5,8.422 -2.98,12.621 -8.42,13.859 -2.72,0.75 -5.93,0.993 -7.67,0.993 -0.99,0 -1.98,0.5 -1.98,1.488 0,1.48 1.24,1.969 3.96,1.969 8.17,0 23.76,-0.731 25,-0.731 1.24,0 16.82,0.731 24.25,0.731 2.72,0 3.96,-0.489 3.96,-1.969 0,-0.988 -0.99,-1.488 -1.98,-1.488 -1.73,0 -3.22,-0.243 -6.18,-0.743 -6.69,-1.238 -8.67,-5.449 -9.16,-14.109 -0.5,-7.91 -0.5,-14.852 -0.5,-53.449 V 75.2383"
         style="fill:#15366f;fill-opacity:1;fill-rule:nonzero;stroke:none"
         id="path44" />
      <path
         d="m 3478.82,75.2383 c 0,-23.7578 0,-43.3086 1.23,-53.707 0.75,-7.1719 2.23,-12.62114 9.65,-13.60161 3.46,-0.5 8.91,-0.98828 11.13,-0.98828 1.49,0 1.99,-0.75 1.99,-1.49219 0,-1.23828 -1.24,-1.98047 -3.96,-1.98047 -13.61,0 -29.2,0.74219 -30.44,0.74219 -1.24,0 -16.83,-0.74219 -24.25,-0.74219 -2.73,0 -3.97,0.5 -3.97,1.98047 0,0.74219 0.5,1.49219 1.98,1.49219 2.23,0 5.2,0.48828 7.43,0.98828 4.95,0.98047 6.19,6.42971 7.18,13.60161 1.23,10.3984 1.23,29.9492 1.23,53.707 V 179.922 l -36.63,-0.492 c -15.34,-0.239 -21.28,-1.981 -25.24,-7.918 -2.72,-4.211 -3.46,-5.942 -4.21,-7.672 -0.73,-1.981 -1.48,-2.469 -2.47,-2.469 -0.75,0 -1.24,0.738 -1.24,2.219 0,2.469 4.96,23.762 5.45,25.738 0.49,1.492 1.48,4.703 2.47,4.703 1.73,0 4.21,-2.48 10.89,-2.972 7.17,-0.739 16.58,-1.231 19.55,-1.231 h 92.81 c 7.92,0 13.61,0.492 17.57,1.231 3.71,0.492 5.94,1.242 6.93,1.242 1.23,0 1.23,-1.481 1.23,-2.973 0,-7.43 -0.73,-24.5 -0.73,-27.219 0,-2.23 -0.75,-3.218 -1.74,-3.218 -1.23,0 -1.73,0.738 -1.98,4.199 l -0.24,2.73 c -0.75,7.418 -6.68,13.11 -30.45,13.61 l -31.17,0.492 V 75.2383"
         style="fill:#15366f;fill-opacity:1;fill-rule:nonzero;stroke:none"
         id="path46" />
      <path
         d="m 3843.83,67.5703 c 0,13.3594 -2.48,18.8086 -5.7,25.9883 -1.73,3.9531 -34.9,58.4024 -43.56,71.2694 -6.19,9.16 -12.37,15.352 -16.83,18.313 -3.7,2.48 -8.41,3.961 -10.64,3.961 -1.23,0 -2.47,0.5 -2.47,1.738 0,0.988 0.99,1.719 3.22,1.719 4.7,0 23.26,-0.731 24.5,-0.731 1.73,0 11.14,0.731 20.79,0.731 2.72,0 3.21,-0.731 3.21,-1.719 0,-0.988 -1.48,-1.238 -3.71,-2.231 -1.98,-0.988 -3.22,-2.48 -3.22,-4.449 0,-2.969 1.24,-5.949 3.22,-9.66 3.96,-7.172 41.08,-71.031 45.54,-78.2109 4.7,10.4019 36.13,64.6019 41.08,72.7619 3.22,5.199 4.21,9.41 4.21,12.629 0,3.461 -0.99,6.191 -3.97,6.929 -2.22,0.743 -3.7,1.243 -3.7,2.469 0,0.992 1.48,1.481 3.96,1.481 6.43,0 14.35,-0.731 16.33,-0.731 1.49,0 19.3,0.731 24.01,0.731 1.73,0 3.21,-0.489 3.21,-1.481 0,-1.226 -1.23,-1.976 -3.21,-1.976 -2.73,0 -7.43,-0.993 -11.39,-3.461 -4.95,-2.969 -7.67,-5.942 -13.11,-12.621 -8.17,-9.899 -42.82,-68.059 -47.27,-78.7114 -3.72,-8.8984 -3.72,-16.5703 -3.72,-24.7383 v -21.289 c 0,-3.961 0,-14.3516 0.74,-24.75 0.5,-7.1719 2.73,-12.62114 10.15,-13.60161 3.47,-0.5 8.91,-0.98828 11.14,-0.98828 1.49,0 1.98,-0.75 1.98,-1.49219 0,-1.23828 -1.24,-1.98047 -3.96,-1.98047 -13.61,0 -29.2,0.74219 -30.44,0.74219 -1.24,0 -16.83,-0.74219 -24.25,-0.74219 -2.73,0 -3.96,0.5 -3.96,1.98047 0,0.74219 0.49,1.49219 1.98,1.49219 2.22,0 5.19,0.48828 7.42,0.98828 4.95,0.98047 7.18,6.42971 7.67,13.60161 0.75,10.3984 0.75,20.789 0.75,24.75 v 21.289"
         style="fill:#15366f;fill-opacity:1;fill-rule:nonzero;stroke:none"
         id="path48" />
      <path
         d="m 2247.49,991.293 c 0,0 7.64,7.406 26.7,9.177 20.84,1.94 39.77,13.75 48.73,32.96 2.14,4.59 3.53,9.35 6.09,13.76 6.6,11.38 17.47,22.55 31.39,23.11 11.17,1.21 19.48,-1.91 29.04,2.22 8.55,4.16 9.37,4.79 9.37,4.79 0,0 -5.12,-1.8 -14.93,-2.3 -8.12,-0.72 -20.36,2.44 -27.87,2.13 -7.48,0 -23.42,-3.37 -32.6,-11.82 -9.15,-8.52 -18.01,-22.13 -27.19,-25.82 -7.9,-3.18 -16.77,-5.88 -25.37,-5.36 -5.28,0.31 -10.39,1.91 -15.61,2.83 -9.01,1.59 -18.15,1.01 -27.07,-0.93 l 105.4,135.32 -141.05,-101.14 c 0,0 0.16,6.29 4.26,15.13 4.04,8.78 16.45,17.71 20.68,32.75 2.92,12.64 2.2,20.33 -3.69,34.9 -5.33,13.03 -5.78,23.34 -4.28,31.31 1.7,9.01 7.32,18.35 12.39,23.26 8.7,8.36 10.72,13.27 12.4,19.55 l 1.53,6.11 c 0,0 -0.31,-2.58 -6.76,-10.7 -6.75,-8.14 -10.94,-6.44 -19.4,-14.32 -8.51,-7.81 -14.56,-17.46 -17.29,-28.8 -2.56,-15.01 2.23,-18.27 1.06,-31.95 -1.18,-12.83 -4.17,-17.08 -9.9,-24.77 -5.38,-5.85 -11.79,-10.95 -19.3,-14.65 -7.17,-3.7 -13.44,-10.08 -17.31,-19.25 l -26.24,166.8 -25.09,-166.85 c 0,0 -7.35,7.12 -8.93,18.77 -0.99,7.17 -1.45,26.36 -12.8,38.11 -9.5,9.82 -15.84,12.72 -30.57,18.49 -8.75,3.66 -19.78,13.5 -24.45,24.07 -4.25,9.84 -3.72,27.51 -5.07,31.62 -1.89,7.12 -7.49,13.74 -7.49,13.74 0,0 3.37,-8.36 3.05,-16.47 -0.31,-8.13 -3.9,-21.41 -3.36,-28.18 0.48,-7 1.69,-17.69 14.24,-29.19 12.55,-11.59 17.7,-10.23 25.49,-25.51 7.81,-15.28 6.45,-23.08 3.7,-31.55 -2.73,-8.51 -3.45,-17.72 -2.23,-22.88 1.35,-6.18 1.83,-9.54 1.83,-9.54 l -140.96,101.14 104.37,-135.24 c 0,0 -13.91,-0.36 -21.15,6.08 -10.06,8.77 -16.83,13.2 -28.55,16.41 0,0 -11.03,3.95 -26.96,-0.8 -16.02,-4.75 -12.5,-4.4 -23.35,-6.08 -10.88,-1.7 -28.32,0.95 -36.85,8.12 -8.45,7.16 -15.45,13.44 -21.57,15.44 -6.11,2.02 -11.01,2.58 -11.01,2.58 0,0 9.81,-3.46 17.29,-11.91 7.64,-8.69 9.5,-16.73 20.35,-22.77 11.43,-6.26 21.09,-8.76 31.31,-8.12 8.44,0.4 13.51,2.75 24.04,1.53 7.34,-0.81 20.41,-4.65 26.41,-12.18 9.34,-11.47 14.22,-21.05 18.82,-25.315 5.78,-5.472 12.87,-7.812 12.87,-7.812 l -173.54,-28.875 c 0,0 243.9,10.527 300.07,10.527 56.17,0 303.77,-11.218 304.37,-11.257 l -177.46,29.605"
         style="fill:#edae09;fill-opacity:1;fill-rule:nonzero;stroke:none"
         id="path50" />
      <path
         d="m 4270.54,334.605 h 4.09 c 5.11,0 6.73,1.696 6.73,4.606 0,2.977 -2.13,4.758 -5.88,4.758 h -4.94 z m 11.25,-16.199 c -0.77,1.016 -1.2,1.879 -1.54,3.41 l -0.93,3.84 c -0.77,2.981 -3.33,4.094 -6.4,4.094 h -2.38 v -11.344 h -6.31 v 30.77 h 12.02 c 6.9,0 11.33,-2.981 11.33,-9.547 0,-5.106 -3.58,-7.668 -8.52,-7.934 3.24,-0.5 5.62,-1.449 6.65,-4.855 l 1.19,-4.594 c 0.42,-1.461 1.02,-2.824 1.88,-3.84 z m -6.65,-8.781 c 12.95,0 23.52,9.797 23.52,23.617 0,13.805 -10.57,23.699 -23.52,23.699 -12.96,0 -23.53,-9.894 -23.53,-23.699 0,-13.82 10.57,-23.617 23.53,-23.617 z m -0.09,49.777 c 14.41,0 26.17,-10.992 26.17,-26.16 0,-15.183 -11.76,-26.094 -26.17,-26.094 -14.4,0 -26.08,10.911 -26.08,26.094 0,15.168 11.68,26.16 26.08,26.16"
         style="fill:#15366f;fill-opacity:1;fill-rule:nonzero;stroke:none"
         id="path52" />
    </g>
  </g>
</svg>
