<?xml version="1.0" encoding="UTF-8" standalone="no"?>
<!DOCTYPE svg PUBLIC "-//W3C//DTD SVG 1.1//EN" "http://www.w3.org/Graphics/SVG/1.1/DTD/svg11.dtd">
<svg width="100%" height="100%" viewBox="0 0 674 198" version="1.1" xmlns="http://www.w3.org/2000/svg" xmlns:xlink="http://www.w3.org/1999/xlink" xml:space="preserve" xmlns:serif="http://www.serif.com/" style="fill-rule:evenodd;clip-rule:evenodd;stroke-linejoin:round;stroke-miterlimit:2;">
    <g transform="matrix(1,0,0,1,-1227,-283)">
        <g transform="matrix(1,0,0,1,353,-1174)">
            <g transform="matrix(1,0,0,1,1,374)">
                <path d="M873,1105L1239,1109L1233,1187L1220,1233L1202,1263L1164,1280L1111,1281L1073,1263L1047,1236L1020,1191L1011,1161L1000,1139.51L977,1139.51L972,1150L970,1170L966,1196L964,1226L960,1244L952,1259L943,1267L931,1268L915,1259L901,1233L888,1205L879,1170L873,1131L873,1105Z" style="fill:url(#_Linear1);"/>
            </g>
            <g transform="matrix(1,0,0,1,0,377)">
                <path d="M874,1080L874,1105L1240,1109L1240,1085L874,1080Z" style="fill:rgb(0,82,223);"/>
            </g>
            <g transform="matrix(1,0,0,1,-8,376.5)">
                <path d="M1240,1085L1492,1100L1512,1109L1524,1130L1534,1149L1543,1171L1548,1184L1556,1193L1550,1202L1542,1193L1531,1171L1524,1153L1516,1132L1503,1117L1477,1109L1240,1109L1240,1085Z" style="fill:rgb(0,82,223);"/>
            </g>
            <g transform="matrix(1,0,0,1,-173,627)">
                <path d="M1151,889L1166,906L1168,935L1158,959L1145,965L1137,966L1145,893L1151,889Z" style="fill:rgb(218,68,107);"/>
            </g>
        </g>
    </g>
    <defs>
        <linearGradient id="_Linear1" x1="0" y1="0" x2="1" y2="0" gradientUnits="userSpaceOnUse" gradientTransform="matrix(366,0,0,176,873,1193)"><stop offset="0" style="stop-color:black;stop-opacity:0.72"/><stop offset="0.08" style="stop-color:rgb(62,25,64);stop-opacity:0.72"/><stop offset="0.16" style="stop-color:rgb(231,92,241);stop-opacity:0.72"/><stop offset="0.22" style="stop-color:rgb(113,97,236);stop-opacity:0.72"/><stop offset="0.42" style="stop-color:rgb(43,117,232);stop-opacity:0.72"/><stop offset="1" style="stop-color:rgb(218,68,107);stop-opacity:0.72"/></linearGradient>
    </defs>
</svg>
