<?xml version="1.0" encoding="UTF-8"?>
<svg width="731.49pt" height="178.49pt" version="1.1" viewBox="0 0 731.49 178.49" xmlns="http://www.w3.org/2000/svg">
 <g fill="#221f1f">
  <path d="m182.09 54.121h18.023l8.4844 46.824 12.5-46.824h15.848l14.836 47.645 8.6797-47.645h17.125l-14.648 70.062h-19.773l-13.148-43.711-13.449 43.711h-20.742z"/>
  <path d="m704.96 124.18h-18.023l-8.4688-46.992-12.512 46.992h-15.855l-14.773-47.633-8.7383 47.633h-17.129l14.652-70.062h19.773l13.145 43.746 13.461-43.746h20.734z"/>
  <path d="m315.33 111.53c11.207 0 15.664-10.844 15.664-22.379 0-12.156-4.457-22.387-15.664-22.387-11.203 0-15.664 10.23-15.664 22.387 0 11.535 4.4609 22.379 15.664 22.379m0-58.621c22.805 0 34.699 13.758 34.699 36.242 0 22.281-12.094 36.227-34.699 36.227-22.598 0-34.691-13.945-34.691-36.227 0-22.484 11.895-36.242 34.691-36.242"/>
  <path d="m360.34 54.113h18.441v56.211h28.551v13.844h-46.992z"/>
  <path d="m414.96 54.113h46.281v13.25h-27.848v15.363h26.66v13.242h-26.66v28.199h-18.434z"/>
  <path d="m489.32 83.23h4.8672c5.9414 0 13.48-0.20312 13.48-8.1367 0-6.5195-6.4453-7.7305-13.48-7.7305h-4.8672zm-18.434-29.117h32.91c12.297 0 22.309 5.6172 22.309 17.672 0 9.3359-4.3633 15.555-13.285 17.664v0.20312c5.9414 1.6055 6.3477 6.9258 9.8164 15.457l6.7344 19.059h-19.227l-3.9609-12.637c-3.7734-12.043-6.1484-15.059-12.988-15.059h-3.875v27.695h-18.434z"/>
  <path d="m568.61 68.574h-0.19141l-8.9219 27.395h17.34zm-11.305-14.461h22.609l26.664 70.055h-20.223l-5.1562-14.945h-25.969l-5.457 14.945h-18.738z"/>
 </g>
 <g>
  <path d="m126.68 115.08-13.582-4.3008 16.238-4.7891 15.207 5.1992zm-21.695 19.164 0.47266-19.352 18.18 5.7578 2.2734 22.785zm-55.531-13.598 18.184-5.7539 0.46875 19.348-20.93 9.1836zm-20.895-9.4688 15.203-5.1875 16.23 4.7852-13.586 4.2969zm10.375-19.289 12.816-4.7539-9.957 12.941-14.602 4.9844zm-16.078-23.352 22.355-4.8672 10.746 15.258-17.922 6.6484zm75.215-26.555-11.52 14.719-11.516-14.723 11.512-19.711zm52.18 26.57-15.184 17.035-17.926-6.6602 10.758-15.25zm-58.66 22.141 19.559-6.5898 13.016 16.914-20.508 6.0469zm-17.566 30.402 9.4102 13.727v16.066l-9.0664-15.516zm7.4844-30.402-12.066 16.371-20.508-6.0469 13.016-16.914zm-31.922-31.629-1.8047-18.07 9.1914 12.41 0.46094 16.801zm40.078 4.8906 20.129-7.1562-0.58594 21.383-19.543 6.5859zm-25.773 14.227-0.58984-21.383 20.133 7.1562v20.812zm22.656 50.164-12.07-17.609 12.07-16.383 12.074 16.383zm36.973-69.277-7.8555 11.145 0.46094-16.805 9.2031-12.414zm-19.723-14.293 16.258-7.1406-8.9609 12.086-15.477 5.5039zm-26.312 10.449-15.484-5.5039-8.957-12.098 16.262 7.1445zm21.238 80.156-9.0586 15.504v-16.062l9.4062-13.719zm47.172-30.312-14.59-4.9922-9.9531-12.934 12.812 4.7578zm-5.7422-15.82 21.848-24.512-32.082-6.9961 3.2656-32.676-30.066 13.203-16.57-28.355-16.559 28.352-30.062-13.207 3.2617 32.676-32.086 6.9844 21.844 24.523-21.848 24.508 32.082 6.9961-3.2656 32.676 30.066-13.195 16.566 28.352 16.562-28.348 30.062 13.203-3.2617-32.676 32.086-6.9883z" fill="#d10"/>
  <path d="m136.73 125.59c0.41797 0 0.71484-0.15234 0.71484-0.51953 0-0.32031-0.16797-0.53125-0.67578-0.53125h-0.44531v1.0508zm-0.85547-1.4414h0.96484c0.54688 0 1.0781 0.19531 1.0781 0.89453 0 0.35156-0.23828 0.6875-0.55859 0.78516l0.6875 1.207h-0.51953l-0.54688-1.0664h-0.65625v1.0664h-0.44922zm3.0664 1.5c0-1.3477-0.9375-2.3398-2.1133-2.3398s-2.1172 0.99219-2.1172 2.3398c0 1.3281 0.94141 2.2969 2.1172 2.2969s2.1133-0.96875 2.1133-2.2969m-4.6641 0c0-1.6406 1.1641-2.7344 2.5508-2.7344 1.3984 0 2.5469 1.0938 2.5469 2.7344 0 1.625-1.1484 2.7031-2.5469 2.7031-1.3867 0-2.5508-1.0781-2.5508-2.7031" fill="#808285"/>
  <path d="m697.71 56.523c0.42969 0 0.73047-0.15625 0.73047-0.53125 0-0.32813-0.17188-0.54297-0.6875-0.54297h-0.46094v1.0742zm-0.875-1.4766h0.98828c0.55859 0 1.1055 0.20312 1.1055 0.91797 0 0.35938-0.24609 0.70312-0.57422 0.80078l0.70312 1.2344h-0.53125l-0.55859-1.0898h-0.67578v1.0898h-0.45703zm3.1406 1.5352c0-1.375-0.96094-2.3945-2.168-2.3945-1.2031 0-2.1641 1.0195-2.1641 2.3945 0 1.3633 0.96094 2.3516 2.1641 2.3516 1.207 0 2.168-0.98828 2.168-2.3516m-4.7773 0c0-1.6797 1.1914-2.7969 2.6094-2.7969 1.4375 0 2.6133 1.1172 2.6133 2.7969 0 1.6641-1.1758 2.7656-2.6133 2.7656-1.418 0-2.6094-1.1016-2.6094-2.7656" fill="#808285"/>
 </g>
</svg>
