<?xml version="1.0" encoding="UTF-8" standalone="no"?><!DOCTYPE svg PUBLIC "-//W3C//DTD SVG 1.1//EN" "http://www.w3.org/Graphics/SVG/1.1/DTD/svg11.dtd"><svg width="100%" height="100%" viewBox="0 0 300 300" version="1.1" xmlns="http://www.w3.org/2000/svg" xmlns:xlink="http://www.w3.org/1999/xlink" xml:space="preserve" style="fill-rule:evenodd;clip-rule:evenodd;stroke-miterlimit:10;"><g id="Layer-1"><rect x="208.858" y="222.325" width="6.854" height="12.472" style="fill:#4b7bbe;fill-rule:nonzero;"/><path d="M53.972,99.108l19.217,0c0,0 14.941,-55.306 76.368,-55.306c61.427,0 77.833,55.306 77.833,55.306l18.747,0c0,0 -20.154,-72.647 -96.082,-72.647c-75.929,0 -96.083,72.647 -96.083,72.647" style="fill:#f89822;fill-rule:nonzero;"/><rect x="58.19" y="99.109" width="10.313" height="46.06" style="fill:#4b7bbe;fill-rule:nonzero;"/><path d="M61.596,195.389c0,2.551 -3.882,4.618 -8.67,4.618c-4.79,0 -8.672,-2.067 -8.672,-4.618l0,-39.714c0,-2.553 3.882,-4.622 8.672,-4.622c4.788,0 8.67,2.069 8.67,4.622l0,39.714Z" style="fill:#4b7bbe;fill-rule:nonzero;"/><path d="M78.735,137.427l0,80.875c0,0 -27.652,7.969 -27.652,-25.31l0,-30.253c0,-33.28 27.652,-25.312 27.652,-25.312" style="fill:#2a3f66;fill-rule:nonzero;"/><path d="M78.733,220.673c0,1.726 1.399,3.124 3.125,3.124l11.093,0c1.725,0 3.125,-1.398 3.125,-3.124l0,-85.614c0,-1.725 -1.4,-3.126 -3.125,-3.126l-11.093,0c-1.726,0 -3.125,1.401 -3.125,3.126l0,85.614Z" style="fill:#f89822;fill-rule:nonzero;"/><rect x="231.497" y="99.109" width="10.313" height="46.06" style="fill:#4b7bbe;fill-rule:nonzero;"/><path d="M238.404,195.389c0,2.551 3.882,4.618 8.67,4.618c4.79,0 8.672,-2.067 8.672,-4.618l0,-39.714c0,-2.553 -3.882,-4.622 -8.672,-4.622c-4.788,0 -8.67,2.069 -8.67,4.622l0,39.714Z" style="fill:#4b7bbe;fill-rule:nonzero;"/><path d="M221.265,137.427l0,80.875c0,0 27.652,7.969 27.652,-25.31l0,-30.253c0,-33.28 -27.652,-25.312 -27.652,-25.312" style="fill:#2a3f66;fill-rule:nonzero;"/><path d="M221.267,220.673c0,1.726 -1.399,3.124 -3.125,3.124l-11.093,0c-1.725,0 -3.125,-1.398 -3.125,-3.124l0,-85.614c0,-1.725 1.4,-3.126 3.125,-3.126l11.093,0c1.726,0 3.125,1.401 3.125,3.126l0,85.614Z" style="fill:#f89822;fill-rule:nonzero;"/><path d="M212.365,234.797l0.23,17.706c0,0 -11.477,19.375 -53.975,14.375c-42.497,-5 -88.681,-29.6 -93.712,0.823c-5.031,30.426 110.586,16.674 130.272,32.299" style="fill:none;stroke-width:2px;stroke:#d31c5b;"/></g></svg>