<svg id="Original" xmlns="http://www.w3.org/2000/svg" viewBox="0 0 424.5 204.75"><defs><style>.cls-1{fill:#fff;}.cls-2{fill:#00e000;}.cls-3{fill:#e5000b;}.cls-4{fill:#dbe200;}.cls-5{fill:#0000e2;}.cls-6{fill:#0dd;}.cls-7{fill:#e29b00;}.cls-8{fill:#dd00a6;}.cls-9{fill:#b200ff;}.cls-10{fill:#6e00dd;}</style></defs><title>KHE_Birthday</title><polygon class="cls-1" points="424.5 42.75 424.5 0.5 324.25 0.5 324.25 0.5 277.25 0.5 277.25 77 191.25 77 191.25 0 146.25 0 146.25 83.25 67.5 0 8.5 0 99.75 95.25 0 204.75 63.25 204.75 146.25 108.75 146.25 204.75 191.25 204.75 191.25 116.25 191.25 115.75 277.25 115.75 277.25 204.25 324.25 204.25 324.25 204 424.5 204 424.5 161.75 324.25 161.75 324.25 120.75 411.75 120.75 411.75 78.5 324.25 78.5 324.25 42.75 424.5 42.75"/><circle class="cls-2" cx="26.97" cy="4.41" r="2.51"/><circle class="cls-3" cx="41.9" cy="13.41" r="5.1"/><circle class="cls-4" cx="64.07" cy="9.96" r="3.04"/><circle class="cls-3" cx="72.47" cy="31.05" r="2.06"/><circle class="cls-5" cx="86.49" cy="56.76" r="3.35"/><circle class="cls-6" cx="117.73" cy="70.86" r="2.32"/><circle class="cls-4" cx="133.17" cy="99.03" r="4.93"/><circle class="cls-5" cx="127.09" cy="112" r="3.26"/><circle class="cls-2" cx="93.01" cy="113.82" r="2.87"/><circle class="cls-7" cx="108.23" cy="117.56" r="3.73"/><circle class="cls-8" cx="105.12" cy="144.7" r="3.69"/><circle class="cls-9" cx="84.58" cy="130.77" r="2.87"/><circle class="cls-5" cx="56.43" cy="152.22" r="2.97"/><circle class="cls-9" cx="74.45" cy="164.49" r="3.85"/><circle class="cls-3" cx="47.38" cy="181.27" r="4.74"/><circle class="cls-2" cx="23.59" cy="197.5" r="3.64"/><circle class="cls-4" cx="160.55" cy="9.7" r="2.25"/><circle class="cls-2" cx="179.94" cy="6.78" r="4.21"/><circle class="cls-9" cx="174.58" cy="17.5" r="2.87"/><circle class="cls-5" cx="166.13" cy="25.95" r="6.73"/><circle class="cls-5" cx="154.52" cy="51.92" r="3.3"/><circle class="cls-2" cx="172.74" cy="66.88" r="2.85"/><circle class="cls-8" cx="158.47" cy="94.27" r="3.04"/><circle class="cls-3" cx="189.23" cy="93.05" r="4.6"/><circle class="cls-7" cx="208.9" cy="83.42" r="5.03"/><circle class="cls-10" cx="182.53" cy="122.15" r="2.3"/><circle class="cls-2" cx="169.27" cy="140.97" r="4.74"/><circle class="cls-5" cx="184.92" cy="146.85" r="2.97"/><circle class="cls-3" cx="151.7" cy="155.95" r="4.12"/><circle class="cls-5" cx="157.06" cy="175.96" r="3.64"/><circle class="cls-8" cx="175.9" cy="173.54" r="3.04"/><circle class="cls-4" cx="168.69" cy="196.21" r="4.16"/><circle class="cls-9" cx="212.18" cy="106.15" r="3.28"/><circle class="cls-6" cx="235.28" cy="102.43" r="3.45"/><circle class="cls-2" cx="257.4" cy="91.42" r="4.98"/><circle class="cls-4" cx="266.7" cy="104.59" r="2.22"/><circle class="cls-3" cx="284.1" cy="105.1" r="1.71"/><circle class="cls-5" cx="296.61" cy="99.99" r="4.36"/><circle class="cls-3" cx="308.34" cy="88.26" r="2.49"/><circle class="cls-8" cx="297.52" cy="69.68" r="3.64"/><circle class="cls-2" cx="317.45" cy="56.49" r="2.23"/><circle class="cls-7" cx="311.79" cy="21.86" r="4.26"/><circle class="cls-3" cx="307.33" cy="15.64" r="6.18"/><circle class="cls-5" cx="304.6" cy="26.5" r="5.74"/><circle class="cls-5" cx="281.24" cy="4.86" r="3.16"/><circle class="cls-4" cx="340.53" cy="15.99" r="2.9"/><circle class="cls-6" cx="373.3" cy="11.14" r="3.3"/><circle class="cls-3" cx="390.91" cy="4.53" r="3.11"/><circle class="cls-2" cx="406.26" cy="15.95" r="5.63"/><circle class="cls-9" cx="404.56" cy="35.12" r="2.11"/><circle class="cls-9" cx="372.96" cy="33.78" r="2.97"/><circle class="cls-5" cx="331.79" cy="86.82" r="4.5"/><circle class="cls-4" cx="346.2" cy="94.91" r="3.59"/><circle class="cls-6" cx="335.72" cy="106.45" r="2.49"/><circle class="cls-9" cx="377.37" cy="84.62" r="3.64"/><circle class="cls-5" cx="403.63" cy="87.04" r="4.72"/><circle class="cls-7" cx="390.59" cy="107.96" r="5.08"/><circle class="cls-4" cx="368.11" cy="111.43" r="3.48"/><circle class="cls-7" cx="287.51" cy="161.55" r="4.64"/><circle class="cls-8" cx="294.4" cy="145.56" r="2.25"/><circle class="cls-6" cx="310.99" cy="133.23" r="2.27"/><circle class="cls-3" cx="312.14" cy="169.52" r="2.37"/><circle class="cls-2" cx="282.96" cy="192.24" r="2.49"/><circle class="cls-5" cx="310.92" cy="194.73" r="4.5"/><circle class="cls-9" cx="331.94" cy="192.86" r="3.78"/><circle class="cls-3" cx="348.45" cy="179.6" r="6.7"/><circle class="cls-8" cx="376.6" cy="194.92" r="6.22"/><circle class="cls-8" cx="377.22" cy="170.84" r="2.06"/><circle class="cls-5" cx="391.97" cy="169.02" r="2.15"/><circle class="cls-4" cx="413.75" cy="167.63" r="4.4"/><circle class="cls-2" cx="404.37" cy="192.62" r="4.4"/><circle class="cls-5" cx="421.65" cy="201.67" r="1.87"/></svg>