<svg xmlns="http://www.w3.org/2000/svg" viewBox="0 0 566 273"><title>Asset 4</title><g id="Layer_2" data-name="Layer 2"><g id="Original"><polygon points="566 57 566 0.67 432.33 0.67 432.33 0.67 369.67 0.67 369.67 102.67 255 102.67 255 0 195 0 195 111 90 0 11.33 0 133 127 0 273 84.33 273 195 145 195 273 255 273 255 155 255 154.33 369.67 154.33 369.67 272.33 432.33 272.33 432.33 272 566 272 566 215.67 432.33 215.67 432.33 161 549 161 549 104.67 432.33 104.67 432.33 57 566 57" style="fill:white"/></g></g></svg>