<?xml version="1.0" encoding="utf-8"?>
<!-- Generator: Adobe Illustrator 21.1.0, SVG Export Plug-In . SVG Version: 6.00 Build 0)  -->
<svg version="1.1" id="Original" xmlns="http://www.w3.org/2000/svg" xmlns:xlink="http://www.w3.org/1999/xlink" x="0px" y="0px"
	 viewBox="0 0 2000 2000" style="enable-background:new 0 0 2000 2000;" xml:space="preserve">
<style type="text/css">
	.st0{fill:#FBD53B;}
</style>
<polygon class="st0" points="1283,770.5 1283,714.2 1149.3,714.2 1149.3,714.2 1086.7,714.2 1086.7,816.2 972,816.2 972,713.5 
	912,713.5 912,824.5 807,713.5 728.3,713.5 850,840.5 717,986.5 801.3,986.5 912,858.5 912,986.5 972,986.5 972,868.5 972,867.8 
	1086.7,867.8 1086.7,985.8 1149.3,985.8 1149.3,985.5 1283,985.5 1283,929.2 1149.3,929.2 1149.3,874.5 1266,874.5 1266,818.2 
	1149.3,818.2 1149.3,770.5 "/>
</svg>
