<?xml version="1.0" encoding="utf-8"?>
<!-- Generator: Adobe Illustrator 21.1.0, SVG Export Plug-In . SVG Version: 6.00 Build 0)  -->
<svg version="1.1" xmlns="http://www.w3.org/2000/svg" xmlns:xlink="http://www.w3.org/1999/xlink" x="0px" y="0px"
	 viewBox="0 0 2000 2000" style="enable-background:new 0 0 2000 2000;" xml:space="preserve">
<style type="text/css">
	.st0{display:none;}
	.st1{display:inline;}
	.st2{fill:#FFFFFF;}
	.st3{fill:#FBD53B;}
</style>
<g id="Layer_1" class="st0">
	<g class="st1">
		<g>
			<path class="st2" d="M661,1384c0-113.3,0-226.7,0-340c206.3,0,412.7,0,619,0c0,113.3,0,226.7,0,340
				C1073.7,1384,867.3,1384,661,1384z M776.4,1349.8c1.2-1.8,2.1-4.2,3.8-5.5c6.1-4.8,10-11.3,15-17c4.1-4.7,8.2-9.4,12.3-14.1
				c2.5-2.9,4.9-5.9,7.5-8.7c3.3-3.8,6.7-7.6,10.1-11.3c3.5-3.8,7.2-7.4,10.5-11.3c3.1-3.6,5.7-7.5,8.7-11.1c2.1-2.6,4.5-5,6.5-7.6
				c2.2-2.9,3.6-6.8,6.4-8.7c6.7-4.4,10-11.4,15.1-17c4.5-4.9,9.1-9.6,14.7-15.5c0,43.5,0,85.7,0,127.7c20.5,0,40.2,0,60.3,0
				c0-2.3,0-4.3,0-6.3c0-34.5,0-69,0.1-103.5c0-2.9,1.1-5.8,1.6-8.3c38.2,0,75.3,0,113.1,0c0,39.5,0,78.7,0,118.1
				c65.8,0,130.9,0,195.8,0c0-18.6,0-36.9,0-56c-44.7,0-89.1,0-133.5,0c0-18.7,0-36.6,0-54.9c39.3,0,78.2,0,117.4,0
				c0-18.1,0-35.7,0-53.5c-0.9-1-1.9-2-3.1-3.3c-38.1,0-76.1,0-114.4,0c0-16.4,0-32.5,0-49.1c44.7,0,89.1,0,133.7,0
				c0-18.8,0-37.2,0-55.4c-65.5,0-130.6,0-196.2,0c0,34.3,0,68,0,102c-37.7,0-74.8,0-112.8,0c-0.5-2.9-1.5-5.8-1.5-8.8
				c-0.1-29,0-58-0.1-87c0-2.1-0.2-4.2-0.3-6.5c-20.2,0-39.9,0-60.2,0c0,36.6,0,73,0,109.4c-0.6,0.4-1.2,0.8-1.7,1.1
				c-34.9-36.6-68.9-74.2-103.6-110.5c-25.7,0-51,0-77.7,0c1.9,2.7,3,4.7,4.6,6.3c3.1,3.3,6.5,6.3,9.5,9.6
				c4.3,4.8,8.1,10.1,12.7,14.6c7.4,7.3,15.5,13.8,22.7,21.2c8.4,8.6,16.1,18,24.3,26.8c7.8,8.4,15.9,16.5,23.8,24.8
				c7.3,7.6,14.7,15.3,22.3,23.3c-43.9,48.8-87.2,96.9-131.3,146C721.6,1349.8,748.9,1349.8,776.4,1349.8z"/>
			<path d="M776.4,1349.8c-27.5,0-54.9,0-83.9,0c44.2-49.1,87.5-97.3,131.3-146c-7.6-8-15-15.6-22.3-23.3
				c-7.9-8.3-16-16.4-23.8-24.8c-8.2-8.8-15.9-18.2-24.3-26.8c-7.2-7.4-15.4-13.9-22.7-21.2c-4.6-4.5-8.4-9.8-12.7-14.6
				c-3-3.3-6.5-6.3-9.5-9.6c-1.5-1.7-2.7-3.7-4.6-6.3c26.7,0,51.9,0,77.7,0c34.6,36.4,68.7,73.9,103.6,110.5
				c0.6-0.4,1.2-0.8,1.7-1.1c0-36.4,0-72.8,0-109.4c20.3,0,40,0,60.2,0c0.1,2.3,0.3,4.4,0.3,6.5c0,29-0.1,58,0.1,87
				c0,2.9,1,5.9,1.5,8.8c38,0,75.1,0,112.8,0c0-34,0-67.7,0-102c65.6,0,130.7,0,196.2,0c0,18.2,0,36.6,0,55.4c-44.6,0-89,0-133.7,0
				c0,16.6,0,32.6,0,49.1c38.2,0,76.3,0,114.4,0c1.2,1.3,2.2,2.3,3.1,3.3c0,17.8,0,35.4,0,53.5c-39.1,0-78.1,0-117.4,0
				c0,18.3,0,36.2,0,54.9c44.4,0,88.8,0,133.5,0c0,19.1,0,37.3,0,56c-64.9,0-130,0-195.8,0c0-39.3,0-78.5,0-118.1
				c-37.8,0-74.9,0-113.1,0c-0.5,2.5-1.6,5.4-1.6,8.3c-0.1,34.5-0.1,69-0.1,103.5c0,2,0,4,0,6.3c-20.1,0-39.8,0-60.3,0
				c0-42,0-84.2,0-127.7c-5.6,5.9-10.3,10.6-14.7,15.5c-5.1,5.6-8.4,12.6-15.1,17c-2.8,1.9-4.2,5.8-6.4,8.7c-2,2.6-4.4,5-6.5,7.6
				c-3,3.7-5.6,7.6-8.7,11.1c-3.3,3.9-7,7.5-10.5,11.3c-3.4,3.7-6.7,7.5-10.1,11.3c-2.5,2.9-4.9,5.8-7.5,8.7
				c-4.1,4.7-8.2,9.4-12.3,14.1c-4.9,5.7-8.9,12.3-15,17C778.5,1345.6,777.6,1348,776.4,1349.8z"/>
		</g>
	</g>
</g>
<g id="Rounded">
	<g>
		<path class="st3" d="M1283,1061.6v-38.5c0-4.9-4-8.9-8.9-8.9h-124.8v0h-53.7c-4.9,0-8.9,4-8.9,8.9v84.2c0,4.9-4,8.9-8.9,8.9h-96.8
			c-4.9,0-8.9-4-8.9-8.9v-84.8c0-4.9-4-8.9-8.9-8.9h-42.2c-4.9,0-8.9,4-8.9,8.9v97.1c0,1.8-2.2,2.7-3.5,1.4l-98.9-104.6
			c-1.7-1.8-4-2.8-6.5-2.8h-53.9c-7.9,0-11.9,9.4-6.4,15.1l101.5,105.9c3.2,3.4,3.3,8.7,0.2,12.2l-113.8,124.9
			c-5.2,5.7-1.2,14.9,6.6,14.9h60.1c2.6,0,5.1-1.1,6.7-3.1l104.5-120.9c1.2-1.4,3.5-0.5,3.5,1.3v113.7c0,4.9,4,8.9,8.9,8.9h42.2
			c4.9,0,8.9-4,8.9-8.9v-109.1v-0.7h105.8c4.9,0,8.9,4,8.9,8.9v100.2c0,4.9,4,8.9,8.9,8.9h53.7v-0.3h124.8c4.9,0,8.9-4,8.9-8.9
			v-38.5c0-4.9-4-8.9-8.9-8.9h-115.8c-4.9,0-8.9-4-8.9-8.9v-36.8c0-4.9,4-8.9,8.9-8.9h98.8c4.9,0,8.9-4,8.9-8.9v-38.5
			c0-4.9-4-8.9-8.9-8.9h-98.8c-4.9,0-8.9-4-8.9-8.9v-29.8c0-4.9,4-8.9,8.9-8.9h115.8C1279,1070.5,1283,1066.5,1283,1061.6z"/>
	</g>
</g>
<g id="Original">
</g>
</svg>
