<svg xmlns="http://www.w3.org/2000/svg" viewBox="0 0 1366 40"><defs><style>.a{fill:none;stroke:#000;stroke-miterlimit:10;stroke-width:20px;}</style></defs><title>Untitled-2</title><path class="a" d="M1,21c32.52,0,32.52,20,65,20s32.52-20,65-20,32.52,20,65,20,32.52-20,65-20,32.52,20,65,20,32.52-20,65-20,32.52,20,65,20,32.52-20,65-20,32.52,20,65,20,32.52-20,65-20,32.52,20,65,20,32.52-20,65-20,32.52,20,65,20,32.52-20,65-20,32.52,20,65,20,32.52-20,65-20,32.52,20,65,20,32.52-20,65-20,32.53,20,65.05,20,32.53-20,65.05-20,32.53,20,65.05,20" transform="translate(-1 -11)"/></svg>