<svg xmlns="http://www.w3.org/2000/svg" viewBox="0 0 1366 554"><defs><style>.a{fill:none;stroke:#000;stroke-miterlimit:10;stroke-width:20px;}</style></defs><title>Untitled-3</title><path class="a" d="M0,111c32.52,0,32.52,20,65,20s32.52-20,65-20,32.52,20,65,20,32.52-20,65-20,32.52,20,65,20,32.52-20,65-20,32.52,20,65,20,32.52-20,65-20,32.52,20,65,20,32.52-20,65-20,32.52,20,65,20,32.52-20,65-20,32.52,20,65,20,32.52-20,65-20,32.52,20,65,20,32.52-20,65-20,32.52,20,65,20,32.52-20,65-20,32.53,20,65.05,20,32.53-20,65.05-20,32.53,20,65.05,20" transform="translate(0 -101)"/><path class="a" d="M0,153c32.52,0,32.52,20,65,20s32.52-20,65-20,32.52,20,65,20,32.52-20,65-20,32.52,20,65,20,32.52-20,65-20,32.52,20,65,20,32.52-20,65-20,32.52,20,65,20,32.52-20,65-20,32.52,20,65,20,32.52-20,65-20,32.52,20,65,20,32.52-20,65-20,32.52,20,65,20,32.52-20,65-20,32.52,20,65,20,32.52-20,65-20,32.53,20,65.05,20,32.53-20,65.05-20,32.53,20,65.05,20" transform="translate(0 -101)"/><path class="a" d="M0,195c32.52,0,32.52,20,65,20s32.52-20,65-20,32.52,20,65,20,32.52-20,65-20,32.52,20,65,20,32.52-20,65-20,32.52,20,65,20,32.52-20,65-20,32.52,20,65,20,32.52-20,65-20,32.52,20,65,20,32.52-20,65-20,32.52,20,65,20,32.52-20,65-20,32.52,20,65,20,32.52-20,65-20,32.52,20,65,20,32.52-20,65-20,32.53,20,65.05,20,32.53-20,65.05-20,32.53,20,65.05,20" transform="translate(0 -101)"/><path class="a" d="M0,326c32.52,0,32.52,20,65,20s32.52-20,65-20,32.52,20,65,20,32.52-20,65-20,32.52,20,65,20,32.52-20,65-20,32.52,20,65,20,32.52-20,65-20,32.52,20,65,20,32.52-20,65-20,32.52,20,65,20,32.52-20,65-20,32.52,20,65,20,32.52-20,65-20,32.52,20,65,20,32.52-20,65-20,32.52,20,65,20,32.52-20,65-20,32.53,20,65.05,20,32.53-20,65.05-20,32.53,20,65.05,20" transform="translate(0 -101)"/><path class="a" d="M0,368c32.52,0,32.52,20,65,20s32.52-20,65-20,32.52,20,65,20,32.52-20,65-20,32.52,20,65,20,32.52-20,65-20,32.52,20,65,20,32.52-20,65-20,32.52,20,65,20,32.52-20,65-20,32.52,20,65,20,32.52-20,65-20,32.52,20,65,20,32.52-20,65-20,32.52,20,65,20,32.52-20,65-20,32.52,20,65,20,32.52-20,65-20,32.53,20,65.05,20,32.53-20,65.05-20,32.53,20,65.05,20" transform="translate(0 -101)"/><path class="a" d="M0,410c32.52,0,32.52,20,65,20s32.52-20,65-20,32.52,20,65,20,32.52-20,65-20,32.52,20,65,20,32.52-20,65-20,32.52,20,65,20,32.52-20,65-20,32.52,20,65,20,32.52-20,65-20,32.52,20,65,20,32.52-20,65-20,32.52,20,65,20,32.52-20,65-20,32.52,20,65,20,32.52-20,65-20,32.52,20,65,20,32.52-20,65-20,32.53,20,65.05,20,32.53-20,65.05-20,32.53,20,65.05,20" transform="translate(0 -101)"/><path class="a" d="M0,541c32.52,0,32.52,20,65,20s32.52-20,65-20,32.52,20,65,20,32.52-20,65-20,32.52,20,65,20,32.52-20,65-20,32.52,20,65,20,32.52-20,65-20,32.52,20,65,20,32.52-20,65-20,32.52,20,65,20,32.52-20,65-20,32.52,20,65,20,32.52-20,65-20,32.52,20,65,20,32.52-20,65-20,32.52,20,65,20,32.52-20,65-20,32.53,20,65.05,20,32.53-20,65.05-20,32.53,20,65.05,20" transform="translate(0 -101)"/><path class="a" d="M0,583c32.52,0,32.52,20,65,20s32.52-20,65-20,32.52,20,65,20,32.52-20,65-20,32.52,20,65,20,32.52-20,65-20,32.52,20,65,20,32.52-20,65-20,32.52,20,65,20,32.52-20,65-20,32.52,20,65,20,32.52-20,65-20,32.52,20,65,20,32.52-20,65-20,32.52,20,65,20,32.52-20,65-20,32.52,20,65,20,32.52-20,65-20,32.53,20,65.05,20,32.53-20,65.05-20,32.53,20,65.05,20" transform="translate(0 -101)"/><path class="a" d="M0,625c32.52,0,32.52,20,65,20s32.52-20,65-20,32.52,20,65,20,32.52-20,65-20,32.52,20,65,20,32.52-20,65-20,32.52,20,65,20,32.52-20,65-20,32.52,20,65,20,32.52-20,65-20,32.52,20,65,20,32.52-20,65-20,32.52,20,65,20,32.52-20,65-20,32.52,20,65,20,32.52-20,65-20,32.52,20,65,20,32.52-20,65-20,32.53,20,65.05,20,32.53-20,65.05-20,32.53,20,65.05,20" transform="translate(0 -101)"/></svg>